Coordinates
version=1
nRows=19
nColumns=24
inDegrees=yes

Units are S.I. units (second, meters, Newtons, ...)
Angles are in degrees.

endheader
time	pelvis_tilt	pelvis_list	pelvis_rotation	pelvis_tx	pelvis_ty	pelvis_tz	hip_flexion_r	hip_adduction_r	hip_rotation_r	knee_angle_r	ankle_angle_r	subtalar_angle_r	mtp_angle_r	hip_flexion_l	hip_adduction_l	hip_rotation_l	knee_angle_l	ankle_angle_l	subtalar_angle_l	mtp_angle_l	lumbar_extension	lumbar_bending	lumbar_rotation
      4.32000000	     15.40397659	     -5.44995129	      8.80768359	     -0.54724959	      0.92025598	     -0.25751646	    -32.23899843	     10.42788453	     -0.09276944	    -10.12138891	     22.79110648	      7.03723491	      0.00000000	      7.23953621	     -5.03947727	     13.07352298	     -2.61809199	     12.24985705	      1.37855293	      0.00000000	    -32.17309349	      6.20634353	      4.97995299
      4.32500000	     15.34818880	     -5.09006601	      8.71419244	     -0.54042518	      0.92005812	     -0.25823454	    -32.31272467	      9.98849450	     -0.25858659	    -10.87248960	     22.57996963	      7.44747638	      0.00000000	      7.18979040	     -4.59385564	     12.84633950	     -3.00135338	     12.19581357	      1.12615180	      0.00000000	    -32.12245358	      5.79742061	      4.89370241
      4.33000000	     15.38811051	     -4.64234905	      8.64440555	     -0.53358169	      0.91998194	     -0.25901151	    -32.48280884	      9.48177592	     -0.52117768	    -11.65450156	     22.38746777	      7.97814258	      0.00000000	      7.02527532	     -4.06248658	     12.63655801	     -3.46396950	     12.19893739	      0.89198269	      0.00000000	    -32.18667462	      5.31828224	      4.74470859
      4.33500000	     15.29438166	     -4.19675588	      8.56503367	     -0.52665208	      0.91984334	     -0.25971024	    -32.48303921	      8.97765766	     -0.68658795	    -12.49421673	     22.11520896	      8.28337256	      0.00000000	      7.01015625	     -3.51361640	     12.41687595	     -4.01672997	     12.18896465	      0.70342877	      0.00000000	    -32.09214685	      4.80423334	      4.58707766
      4.34000000	     15.35581084	     -3.68086974	      8.51363234	     -0.51975244	      0.91989798	     -0.26059630	    -32.63811687	      8.40405515	     -1.09007201	    -13.36495701	     21.82292085	      8.94376568	      0.00000000	      6.80990896	     -2.89748373	     12.23886023	     -4.60770951	     12.14655743	      0.42941599	      0.00000000	    -32.18455417	      4.28488177	      4.41702753
      4.34500000	     15.33718132	     -3.14880751	      8.46030823	     -0.51277820	      0.91991336	     -0.26142965	    -32.68935683	      7.82109853	     -1.40511641	    -14.27924936	     21.48960287	      9.43002686	      0.00000000	      6.69694059	     -2.25277676	     12.07218201	     -5.27142612	     12.10898898	      0.18919206	      0.00000000	    -32.17946211	      3.71997489	      4.23222125
      4.35000000	     15.22204053	     -2.63677307	      8.38430047	     -0.50574632	      0.91988705	     -0.26218883	    -32.59640611	      7.24385558	     -1.65456478	    -15.27504046	     21.08667808	      9.77254927	      0.00000000	      6.68188998	     -1.62209632	     11.88427700	     -5.97022630	     12.06887404	      0.00360235	      0.00000000	    -32.06184780	      3.13934316	      4.06416807
      4.35500000	     15.21018564	     -2.08787325	      8.35170662	     -0.49875380	      0.91997346	     -0.26317292	    -32.59803608	      6.62677671	     -2.11075157	    -16.30111503	     20.66429016	     10.46065591	      0.00000000	      6.54874255	     -0.94568695	     11.78834935	     -6.69740272	     11.99262411	     -0.30133676	      0.00000000	    -32.06660582	      2.59573235	      3.85039420
      4.36000000	     15.09022700	     -1.53733476	      8.29774855	     -0.49166828	      0.92000287	     -0.26396150	    -32.45097328	      6.01694901	     -2.42015895	    -17.39790686	     20.17195502	     10.80025811	      0.00000000	      6.51464332	     -0.27328448	     11.65863151	     -7.43201429	     11.90984941	     -0.47331644	      0.00000000	    -31.94312959	      1.97672072	      3.69416278
      4.36500000	     14.98546540	     -0.98137208	      8.24202284	     -0.48457193	      0.92007327	     -0.26488412	    -32.29235287	      5.37090588	     -2.82820745	    -18.54732523	     19.64881327	     11.35258900	      0.00000000	      6.44999479	      0.41385204	     11.55427261	     -8.17212108	     11.79786235	     -0.71418667	      0.00000000	    -31.83673517	      1.38219018	      3.52398465
      4.37000000	     14.96040593	     -0.40747543	      8.27063875	     -0.47755984	      0.92020115	     -0.26597953	    -32.19762927	      4.74136399	     -3.36423304	    -19.72640592	     19.07925296	     11.98868787	      0.00000000	      6.30284824	      1.12803711	     11.61626692	     -8.92907398	     11.66587468	     -1.05625876	      0.00000000	    -31.83229893	      0.83966819	      3.28408522
      4.37500000	     14.82548276	      0.14367310	      8.20513176	     -0.47040875	      0.92029000	     -0.26686189	    -31.94353061	      4.08502986	     -3.74015588	    -20.98526159	     18.44739629	     12.40755995	      0.00000000	      6.23595850	      1.80470945	     11.53018403	     -9.64291401	     11.55874652	     -1.25724118	      0.00000000	    -31.68697308	      0.23498375	      3.11612044
      4.38000000	     14.69159557	      0.69286080	      8.15623705	     -0.46326271	      0.92040884	     -0.26780422	    -31.66254322	      3.42279018	     -4.14605272	    -22.28226015	     17.75012649	     12.87755259	      0.00000000	      6.15591930	      2.48283980	     11.49850545	    -10.34358711	     11.40343921	     -1.47955197	      0.00000000	    -31.54212487	     -0.35670115	      2.97266751
      4.38500000	     14.56332508	      1.22966546	      8.11485380	     -0.45614401	      0.92054368	     -0.26879070	    -31.34529019	      2.75825767	     -4.59436418	    -23.64313520	     17.01318149	     13.33413871	      0.00000000	      6.04872263	      3.14750235	     11.50060303	    -11.00039859	     11.24702933	     -1.72853303	      0.00000000	    -31.40707093	     -0.92439213	      2.82656947
      4.39000000	     14.42802918	      1.76203638	      8.07333836	     -0.44900805	      0.92069820	     -0.26977949	    -30.99187122	      2.08789887	     -5.02761166	    -25.03980359	     16.21717799	     13.75147320	      0.00000000	      5.92956066	      3.80517050	     11.52167075	    -11.62538162	     11.07921140	     -1.96816758	      0.00000000	    -31.26166597	     -1.48990336	      2.69191725
      4.39500000	     14.28798091	      2.28233508	      8.02330308	     -0.44187774	      0.92087472	     -0.27076663	    -30.59629268	      1.41155415	     -5.44861230	    -26.48157892	     15.36904627	     14.11914798	      0.00000000	      5.79364535	      4.44635622	     11.55072528	    -12.20428380	     10.91132783	     -2.20069149	      0.00000000	    -31.11005116	     -2.04742383	      2.57563683
      4.40000000	     14.14411647	      2.79043594	      7.95790233	     -0.43474227	      0.92107071	     -0.27173442	    -30.16102381	      0.72706808	     -5.85066010	    -27.96243527	     14.48042364	     14.42299982	      0.00000000	      5.63985922	      5.06895697	     11.57925006	    -12.73621657	     10.75037873	     -2.42470193	      0.00000000	    -30.94995224	     -2.59888979	      2.47876895
      4.40500000	     14.00115530	      3.28648289	      7.88060158	     -0.42760458	      0.92129590	     -0.27269101	    -29.69311430	      0.03881380	     -6.22143891	    -29.47164569	     13.54119531	     14.65096625	      0.00000000	      5.46320765	      5.67290433	     11.61778217	    -13.21977591	     10.59544110	     -2.62693373	      0.00000000	    -30.78556268	     -3.14214540	      2.40064189
      4.41000000	     13.85594773	      3.76419019	      7.79427045	     -0.42052473	      0.92152458	     -0.27365066	    -29.17583641	     -0.65583983	     -6.60112961	    -31.03127014	     12.60597606	     14.82824378	      0.00000000	      5.27169397	      6.25573087	     11.64822261	    -13.64989708	     10.45665135	     -2.86667128	      0.00000000	    -30.62778041	     -3.66819891	      2.34091880
